<?xml version="1.0" encoding="utf-8"?>
<!-- Generator: Adobe Illustrator 20.1.0, SVG Export Plug-In . SVG Version: 6.00 Build 0)  -->
<svg version="1.1" id="Capa_1" xmlns="http://www.w3.org/2000/svg" xmlns:xlink="http://www.w3.org/1999/xlink" x="0px" y="0px"
	 viewBox="0 0 145 145" style="enable-background:new 0 0 145 145;" xml:space="preserve">
<style type="text/css">
	.st0{fill:#FFFFFF;}
</style>
<path class="st0" d="M145,72.5C145,32.5,112.5,0,72.5,0S0,32.5,0,72.5c0,36.4,26.9,66.5,61.8,71.7c1.1,0.3,2.1,0.5,3.2,0.8
	c5,0,10,0,15,0c1.1-0.3,2.1-0.5,3.2-0.8c13.5-2,25.8-7.8,35.9-16.2c1.3-1,2.5-2.1,3.6-3.2l0-0.1C136.4,111.5,145,93,145,72.5z
	 M6,72.5C6,35.8,35.8,6,72.5,6C109.2,6,139,35.8,139,72.5c0,18.9-7.9,35.9-20.6,48c-6.9-3-13.4-5.8-20-8.6
	c-5.8-2.5-8.4-4.4-11.5-8.9c-0.3-3.8-0.6-7.9-0.9-12c3.9-4.3,6.1-9.3,7.1-14.6c5.7-5.1,6.5-9.3,3.5-14.6c0.8-6.7,1.8-12.6,2.2-18.5
	c0.2-2.6-0.4-5.3-1.1-7.9c-1.3-4.6-4.2-7.8-8.8-9.5c-1.8-0.7-3.6-1.6-5.1-2.8c-2.4-1.8-5-2.7-7.8-3c-5.7-0.6-11.3,0-16.6,2.2
	c-7.3,3-11.2,8.7-12.4,16.3c-1.1,7.5-0.2,14.8,1.8,22c-3.4,5.4-3.3,10.6,2.9,15.8c1.2,5.2,3.2,10.1,7.1,14.2c0,2.5,0.1,5.2,0,7.8
	c-0.2,3.8-1.2,7.2-4.8,9.3c-2.3,1.4-4.5,2.9-6.9,4c-6.6,3-13.4,5.8-20.2,8.7l-0.3,0.3C14,108.5,6,91.4,6,72.5z"/>
</svg>
